<svg xmlns="http://www.w3.org/2000/svg" version="1.1" xmlns:xlink="http://www.w3.org/1999/xlink" xmlns:svgjs="http://svgjs.dev/svgjs" width="800" height="800" preserveAspectRatio="none" viewBox="0 0 800 800"><g mask="url(&quot;#SvgjsMask1125&quot;)" fill="none"><rect width="800" height="800" x="0" y="0" fill="rgba(255, 255, 255, 1)"></rect><path d="M0,385.874C71.598,401.928,154.761,372.51,205.072,319.098C253.799,267.368,232.071,183.615,254.145,116.064C272.884,58.717,317.874,13.285,324.595,-46.67C332.618,-118.241,348.195,-206.882,295.898,-256.397C242.644,-306.817,153.031,-261.58,81.332,-276.99C17.217,-290.77,-36.798,-357.97,-100.287,-341.547C-163.679,-325.149,-192.383,-252.389,-227.477,-197.11C-258.05,-148.952,-275.708,-96.848,-290.591,-41.781C-307.49,20.747,-348.734,88.08,-320.279,146.266C-291.766,204.57,-205.384,199.839,-153.415,238.718C-95.503,282.043,-70.573,370.05,0,385.874" fill="#a6a6a6"></path><path d="M800 1126.62C869.023 1126.019 945.7909999999999 1154.4560000000001 1002.563 1115.194 1059.25 1075.991 1053.199 991.3340000000001 1084.4479999999999 929.903 1117.5810000000001 864.768 1206.479 815.239 1191.531 743.706 1176.33 670.96 1073.7060000000001 660.256 1017.856 611.227 971.975 570.9490000000001 950.981 502.211 893.3820000000001 481.97 835.088 461.484 772.445 486.84 713.127 504.139 653.707 521.4680000000001 593.96 539.985 548.91 582.429 500.999 627.568 451.934 684.165 452.178 749.991 452.419 815.018 526.634 853.477 550.142 914.106 575.913 980.571 540.856 1072.557 595.157 1118.742 648.284 1163.9279999999999 730.259 1127.2269999999999 800 1126.62" fill="#ffffff"></path></g><defs><mask id="SvgjsMask1125"><rect width="800" height="800" fill="#ffffff"></rect></mask></defs></svg>