<svg xmlns="http://www.w3.org/2000/svg" version="1.1" xmlns:xlink="http://www.w3.org/1999/xlink" xmlns:svgjs="http://svgjs.dev/svgjs" width="1440" height="560" preserveAspectRatio="none" viewBox="0 0 1440 560"><g mask="url(&quot;#SvgjsMask1005&quot;)" fill="none"><rect width="1440" height="560" x="0" y="0" fill="rgba(255, 255, 255, 1)"></rect><path d="M1464 560L0 560 L0 286.12Q104.72 270.84, 120 375.56Q143.31 278.88, 240 302.19Q289.16 231.35, 360 280.51Q423.4 271.91, 432 335.32Q477.71 309.03, 504 354.75Q523.17 301.92, 576 321.09Q593.45 266.54, 648 283.99Q715.05 231.04, 768 298.09Q860.04 270.13, 888 362.18Q908.17 310.35, 960 330.52Q1012.22 262.74, 1080 314.96Q1131.84 294.79, 1152 346.63Q1217.97 292.61, 1272 358.58Q1343.24 309.81, 1392 381.05Q1436.48 353.53, 1464 398.01z" fill="rgba(237, 237, 237, 1)"></path><path d="M1512 560L0 560 L0 477.69Q-3.71 401.98, 72 398.26Q161.1 367.36, 192 456.46Q237.21 381.67, 312 426.88Q380.92 375.8, 432 444.72Q476.92 369.64, 552 414.57Q567.39 357.96, 624 373.35Q689.77 319.13, 744 384.9Q795.83 364.73, 816 416.56Q845.87 374.43, 888 404.3Q974.59 370.89, 1008 457.49Q1084.13 413.62, 1128 489.74Q1148.1 389.84, 1248 409.93Q1278.71 368.64, 1320 399.36Q1385.53 392.89, 1392 458.42Q1413.49 359.91, 1512 381.4z" fill="rgba(232, 227, 227, 1)"></path><path d="M1464 560L0 560 L0 473.64Q100.68 454.32, 120 555Q169.77 484.77, 240 534.54Q284.48 459.02, 360 503.5Q387.9 459.4, 432 487.31Q530.01 465.32, 552 563.32Q597.46 488.78, 672 534.24Q709.46 451.7, 792 489.16Q880.82 457.98, 912 546.8Q950.34 465.13, 1032 503.47Q1103.24 454.71, 1152 525.95Q1236.63 490.58, 1272 575.2Q1301.88 485.09, 1392 514.97Q1407.19 458.17, 1464 473.36z" fill="rgba(194, 191, 191, 1)"></path></g><defs><mask id="SvgjsMask1005"><rect width="1440" height="560" fill="#ffffff"></rect></mask></defs></svg>