<svg xmlns="http://www.w3.org/2000/svg" version="1.1" xmlns:xlink="http://www.w3.org/1999/xlink" xmlns:svgjs="http://svgjs.dev/svgjs" width="1440" height="560" preserveAspectRatio="none" viewBox="0 0 1440 560"><g mask="url(&quot;#SvgjsMask1035&quot;)" fill="none"><rect width="1440" height="560" x="0" y="0" fill="rgba(31, 31, 31, 1)"></rect><path d="M1464 560L0 560 L0 394.39Q42.77 317.16, 120 359.94Q147.72 315.66, 192 343.38Q270.03 301.41, 312 379.45Q315.18 310.63, 384 313.8Q429.58 239.38, 504 284.97Q597.15 258.13, 624 351.28Q678.5 333.77, 696 388.27Q746.77 319.04, 816 369.81Q871.32 353.13, 888 408.45Q912.27 360.72, 960 384.99Q984 289, 1080 313Q1124.76 285.76, 1152 330.53Q1237.95 296.48, 1272 382.43Q1272.95 311.38, 1344 312.33Q1390.61 238.94, 1464 285.54z" fill="rgba(25, 25, 25, 0.95)"></path><path d="M1488 560L0 560 L0 431.34Q66.9 426.24, 72 493.14Q126.89 428.03, 192 482.93Q232 402.93, 312 442.93Q340.94 399.88, 384 428.82Q429.8 354.62, 504 400.41Q526.65 351.07, 576 373.72Q644.06 369.78, 648 437.84Q722.02 391.86, 768 465.88Q771.22 397.1, 840 400.31Q889.88 330.19, 960 380.08Q1057.64 357.73, 1080 455.37Q1097.28 400.65, 1152 417.93Q1194.72 388.65, 1224 431.38Q1291.32 426.69, 1296 494.01Q1297.16 375.17, 1416 376.34Q1486.76 375.1, 1488 445.85z" fill="rgba(61, 59, 59, 1)"></path><path d="M1536 560L0 560 L0 494.51Q82.36 456.88, 120 539.24Q181.43 528.67, 192 590.1Q211.23 537.33, 264 556.55Q275.58 496.13, 336 507.7Q355.36 455.06, 408 474.41Q454.01 448.42, 480 494.43Q539.27 481.7, 552 540.97Q629.71 498.68, 672 576.39Q686.14 470.53, 792 484.67Q822.16 442.83, 864 472.99Q955.77 444.76, 984 536.54Q1013.4 493.94, 1056 523.34Q1148.34 495.68, 1176 588.03Q1177.35 469.38, 1296 470.72Q1383.11 437.83, 1416 524.94Q1497.96 486.9, 1536 568.87z" fill="rgba(88, 88, 88, 1)"></path></g><defs><mask id="SvgjsMask1035"><rect width="1440" height="560" fill="#ffffff"></rect></mask></defs></svg>